<svg width="1440" height="29" viewBox="0 0 1440 29" fill="none" xmlns="http://www.w3.org/2000/svg">
<path d="M659.052 28.224C679.954 28.9051 699.956 25.689 720 22.3782L721.449 22.1383C735.469 19.8176 749.519 17.4916 763.927 16.4553C788.378 14.6986 812.67 17.4135 836.895 20.1215C844.927 21.0197 852.96 21.9173 860.985 22.6506C893.565 25.6298 927.458 25.2507 960.105 22.9704C964.163 22.6921 968.205 22.3722 972.255 22.0228C978.772 21.4572 985.29 20.8046 991.807 20.1519C1011.85 18.1456 1031.89 16.1383 1052.03 16.6567C1061.39 16.8995 1070.71 17.6814 1080 18.6704C1085.51 19.2568 1091.02 19.9143 1096.52 20.5716C1113.2 22.5636 1129.87 24.5548 1146.69 24.5637C1164.82 24.5739 1182.67 22.2503 1200.47 19.933C1223.93 16.8789 1247.32 13.8356 1271.12 16.1592C1284.99 17.5107 1298.75 19.4286 1312.52 21.3457C1334.57 24.4192 1356.61 27.4908 1379.05 28.224C1399.95 28.9051 1419.95 25.689 1440 22.3782V0H0V22.3782C0.483015 22.2983 0.966053 22.2183 1.44913 22.1383C15.4687 19.8176 29.5196 17.4916 43.9272 16.4553C68.3806 14.6986 92.6678 17.4135 116.892 20.1215C124.928 21.0197 132.957 21.9173 140.983 22.6506C173.563 25.6298 207.46 25.2507 240.106 22.9704C244.16 22.6921 248.206 22.3722 252.252 22.0228C258.772 21.4572 265.289 20.8046 271.807 20.1519C291.845 18.1456 311.891 16.1383 332.035 16.6567C341.395 16.8995 350.704 17.6814 360 18.6704C365.511 19.2568 371.016 19.9143 376.52 20.5716C393.197 22.5636 409.868 24.5548 426.694 24.5637C444.815 24.5739 462.667 22.2503 480.47 19.933C503.934 16.8789 527.314 13.8356 551.124 16.1592C564.992 17.5107 578.755 19.4286 592.513 21.3457C614.569 24.4192 636.611 27.4908 659.052 28.224Z" fill="white"/>
</svg>
